HIERARCHY
ROOT Hips
{
	OFFSET 0.000000 0.000000 0.000000
	CHANNELS 6 Xposition Yposition Zposition Xrotation Yrotation Zrotation
	JOINT LeftUpLeg_virtual
	{
		OFFSET 0.000000 0.000000 0.000000
		CHANNELS 3 Xrotation Yrotation Zrotation
		JOINT LeftUpLeg
		{
			OFFSET 10.205400 -3.823500 0.155100
			CHANNELS 3 Xrotation Yrotation Zrotation
			JOINT LeftLeg
			{
				OFFSET 0.708757 -12.982077 0.567790
				CHANNELS 3 Xrotation Yrotation Zrotation
				JOINT LeftFoot
				{
					OFFSET -0.708756 -10.717838 -2.184338
					CHANNELS 3 Xrotation Yrotation Zrotation
					JOINT LeftToeBase
					{
						OFFSET 0.108149 -7.191104 7.560241
						CHANNELS 3 Xrotation Yrotation Zrotation
						JOINT LeftToe_End
						{
							OFFSET 0.070230 0.081724 4.490308
							CHANNELS 3 Xrotation Yrotation Zrotation
							End Site
							{
								OFFSET 0 0 0
							}
						}
					}
				}
			}
		}
	}
	JOINT RightUpLeg_virtual
	{
		OFFSET 0.000000 0.000000 0.000000
		CHANNELS 3 Xrotation Yrotation Zrotation
		JOINT RightUpLeg
		{
			OFFSET -10.205400 -3.823500 0.005500
			CHANNELS 3 Xrotation Yrotation Zrotation
			JOINT RightLeg
			{
				OFFSET -0.708756 -12.982134 0.610632
				CHANNELS 3 Xrotation Yrotation Zrotation
				JOINT RightFoot
				{
					OFFSET 0.708754 -10.717769 -1.945823
					CHANNELS 3 Xrotation Yrotation Zrotation
					JOINT RightToeBase
					{
						OFFSET -0.108140 -7.191069 7.372968
						CHANNELS 3 Xrotation Yrotation Zrotation
						JOINT RightToe_End
						{
							OFFSET -0.070227 0.081735 4.479403
							CHANNELS 3 Xrotation Yrotation Zrotation
							End Site
							{
								OFFSET 0 0 0
							}
						}
					}
				}
			}
		}
	}
	JOINT Spine_virtual
	{
		OFFSET 0.000000 0.000000 0.000000
		CHANNELS 3 Xrotation Yrotation Zrotation
		JOINT Spine
		{
			OFFSET 0.000000 6.876099 0.125700
			CHANNELS 3 Xrotation Yrotation Zrotation
			JOINT Spine1
			{
				OFFSET 0.000000 5.730043 0.104720
				CHANNELS 3 Xrotation Yrotation Zrotation
				JOINT Spine1_split
				{
					OFFSET 0.000000 5.730043 0.104720
					CHANNELS 3 Xrotation Yrotation Zrotation
					JOINT Spine2
					{
						OFFSET 0.000000 5.730043 0.104720
						CHANNELS 3 Xrotation Yrotation Zrotation
						JOINT Neck_virtual
						{
							OFFSET 0.000000 0.000000 0.000000
							CHANNELS 3 Xrotation Yrotation Zrotation
							JOINT Neck
							{
								OFFSET 0.000000 10.314075 0.188496
								CHANNELS 3 Xrotation Yrotation Zrotation
								JOINT Head
								{
									OFFSET 0.000000 7.643700 -2.377400
									CHANNELS 3 Xrotation Yrotation Zrotation
									JOINT HeadTop_End
									{
										OFFSET 0.000000 43.788605 -13.619600
										CHANNELS 3 Xrotation Yrotation Zrotation
										End Site
										{
											OFFSET 0 0 0
										}
									}
								}
							}
						}
						JOINT LeftShoulder_virtual
						{
							OFFSET 0.000000 0.000000 0.000000
							CHANNELS 3 Xrotation Yrotation Zrotation
							JOINT LeftShoulder
							{
								OFFSET 2.196100 4.412489 0.087492
								CHANNELS 3 Xrotation Yrotation Zrotation
								JOINT LeftShoulder_split
								{
									OFFSET 2.196100 4.412489 0.087492
									CHANNELS 3 Xrotation Yrotation Zrotation
									JOINT LeftArm
									{
										OFFSET 8.771219 -2.981674 -0.026999
										CHANNELS 3 Xrotation Yrotation Zrotation
										JOINT LeftForeArm
										{
											OFFSET 8.512804 0.000000 -0.000000
											CHANNELS 3 Xrotation Yrotation Zrotation
											JOINT LeftHand
											{
												OFFSET 18.484802 0.000000 -0.000000
												CHANNELS 3 Xrotation Yrotation Zrotation
												End Site
												{
													OFFSET 0 0 0
												}
											}
										}
									}
								}
							}
						}
						JOINT RightShoulder_virtual
						{
							OFFSET 0.000000 0.000000 0.000000
							CHANNELS 3 Xrotation Yrotation Zrotation
							JOINT RightShoulder
							{
								OFFSET -2.196100 4.412496 0.070690
								CHANNELS 3 Xrotation Yrotation Zrotation
								JOINT RightShoulder_split
								{
									OFFSET -2.196100 4.412496 0.070690
									CHANNELS 3 Xrotation Yrotation Zrotation
									JOINT RightArm
									{
										OFFSET -8.771282 -2.981682 -0.094208
										CHANNELS 3 Xrotation Yrotation Zrotation
										JOINT RightForeArm
										{
											OFFSET -8.494598 0.000000 0.000000
											CHANNELS 3 Xrotation Yrotation Zrotation
											JOINT RightHand
											{
												OFFSET -18.483803 0.000000 0.000001
												CHANNELS 3 Xrotation Yrotation Zrotation
												End Site
												{
													OFFSET 0 0 0
												}
											}
										}
									}
								}
							}
						}
					}
				}
			}
		}
	}
}
MOTION
Frames: 11
Frame Time: 0.03333333
-0.379742 30.942274 0.253815 0.000000 0.000000 0.000000 -3.701688 -46.309482 -1.903584 -24.202840 3.492127 15.293678 35.171998 -14.600173 -2.216799 -12.397592 1.893500 -10.329167 -0.295287 -2.264410 1.114441 0.000000 0.000000 0.000000 -4.645599 -45.481851 -2.031012 7.074026 -13.442436 -21.686482 24.350120 -7.486555 1.605867 -28.749967 -7.109020 20.952688 -1.365381 -0.205698 0.503221 0.000000 0.000000 0.000000 -2.522017 -43.463970 -1.242312 5.974205 5.587136 -1.209714 12.418974 9.403185 -3.088167 1.084942 -1.373966 0.689734 0.000000 0.000000 0.000000 12.418759 9.168046 -3.253825 -3.958268 -2.039787 0.423916 -4.852463 21.816903 -1.197948 0.000000 0.000000 0.000000 12.238961 9.361510 -3.086161 1.915072 0.011991 -7.086434 -2.805792 -3.233523 -0.673595 -14.919993 3.897522 -61.378587 8.774612 -46.659935 5.329995 0.000000 0.000000 0.000000 12.243191 9.335895 -3.256949 1.407735 9.807183 11.594779 -1.875990 3.190385 -0.528745 3.539409 -21.502501 61.394084 -5.964654 41.727251 7.972718 0.000000 0.000000 0.000000 
-0.379229 30.940321 0.277130 0.000000 0.000000 0.000000 -3.659049 -46.279268 -1.881145 -24.215106 3.441967 15.281491 35.114139 -14.589375 -2.232609 -12.454841 1.900187 -10.287662 -0.250156 -2.269686 1.134388 0.000000 0.000000 0.000000 -4.564472 -45.452621 -2.002767 7.080316 -13.350453 -21.709382 24.439388 -7.420280 1.565399 -28.757016 -7.131443 20.994268 -1.364237 -0.227318 0.535044 0.000000 0.000000 0.000000 -2.434191 -43.460046 -1.214408 5.961603 5.587099 -1.202154 12.383509 9.374955 -3.102791 1.137774 -1.486663 0.686822 0.000000 0.000000 0.000000 12.414570 9.141473 -3.244897 -3.924624 -1.914528 0.349347 -4.847650 21.950935 -1.133081 0.000000 0.000000 0.000000 12.212306 9.331564 -3.095630 1.926639 -0.006614 -7.144838 -2.757348 -3.205732 -0.551067 -14.952042 3.818985 -61.359428 8.826811 -46.797840 5.363336 0.000000 0.000000 0.000000 12.211570 9.306450 -3.235706 1.428041 9.786469 11.587771 -1.977813 3.268707 -0.473489 3.565097 -21.468852 61.408680 -5.924375 41.608181 7.938245 0.000000 0.000000 0.000000 
-0.373633 30.941097 0.293522 0.000000 0.000000 0.000000 -3.596008 -46.310417 -1.844058 -24.211175 3.401958 15.248862 35.036920 -14.541444 -2.212882 -12.546836 1.943856 -10.283406 -0.203670 -2.274169 1.139701 0.000000 0.000000 0.000000 -4.492691 -45.452891 -1.969422 7.030310 -13.281685 -21.736539 24.561437 -7.333659 1.481876 -28.750817 -7.159797 21.051756 -1.378976 -0.261079 0.547929 0.000000 0.000000 0.000000 -2.339231 -43.463547 -1.184297 5.974510 5.569741 -1.195246 12.352529 9.324625 -3.109759 1.144806 -1.540141 0.710984 0.000000 0.000000 0.000000 12.390834 9.091936 -3.241939 -3.873327 -1.763949 0.277971 -4.755958 22.301309 -1.117733 0.000000 0.000000 0.000000 12.190791 9.272086 -3.103261 1.939712 -0.032685 -7.182465 -2.721409 -3.164122 -0.448818 -15.006088 3.784719 -61.371592 8.881111 -46.952336 5.404369 0.000000 0.000000 0.000000 12.187624 9.255739 -3.212097 1.439617 9.760693 11.592750 -2.028860 3.303574 -0.428633 3.531814 -21.358362 61.406174 -5.848384 41.404166 7.861897 0.000000 0.000000 0.000000 
-0.368249 30.941442 0.296762 0.000000 0.000000 0.000000 -3.518723 -46.384651 -1.790039 -24.196362 3.376461 15.196963 34.963083 -14.468082 -2.161020 -12.647834 2.012006 -10.322397 -0.173719 -2.276746 1.132770 0.000000 0.000000 0.000000 -4.432753 -45.476113 -1.926682 6.908343 -13.249408 -21.767557 24.697032 -7.228904 1.357836 -28.720484 -7.186934 21.151368 -1.392129 -0.302562 0.542445 0.000000 0.000000 0.000000 -2.254875 -43.472081 -1.152313 6.007792 5.535126 -1.191875 12.323698 9.249314 -3.107139 1.093639 -1.539727 0.753923 0.000000 0.000000 0.000000 12.355089 9.018229 -3.241891 -3.823007 -1.578486 0.205625 -4.609901 22.901310 -1.174783 0.000000 0.000000 0.000000 12.170867 9.181861 -3.104537 1.953025 -0.065953 -7.203434 -2.713220 -3.094084 -0.376890 -15.049791 3.815250 -61.407629 8.939574 -47.142167 5.458539 0.000000 0.000000 0.000000 12.162530 9.181064 -3.184764 1.444624 9.726760 11.588510 -2.047392 3.297974 -0.410877 3.454071 -21.207264 61.378348 -5.757639 41.152201 7.762093 0.000000 0.000000 0.000000 
-0.361225 30.940739 0.289721 0.000000 0.000000 0.000000 -3.442952 -46.480264 -1.725937 -24.184334 3.379058 15.130582 34.909889 -14.386909 -2.093536 -12.720074 2.083265 -10.401628 -0.153227 -2.279514 1.119439 0.000000 0.000000 0.000000 -4.393190 -45.513601 -1.877067 6.750431 -13.269441 -21.776559 24.804897 -7.119368 1.192521 -28.681966 -7.203859 21.270164 -1.423100 -0.345425 0.520087 0.000000 0.000000 0.000000 -2.195797 -43.489170 -1.115575 6.053662 5.486795 -1.190960 12.299667 9.146796 -3.099241 1.041951 -1.502906 0.777789 0.000000 0.000000 0.000000 12.313513 8.916581 -3.242551 -3.799920 -1.343780 0.122225 -4.458013 23.772813 -1.324619 0.000000 0.000000 0.000000 12.153932 9.056570 -3.100058 1.965481 -0.102192 -7.214505 -2.705875 -3.022987 -0.359826 -15.071888 3.886172 -61.454969 9.021524 -47.385260 5.535692 0.000000 0.000000 0.000000 12.132234 9.080013 -3.155589 1.443471 9.689701 11.564904 -2.032006 3.265480 -0.409828 3.353195 -21.052427 61.337442 -5.681858 40.915753 7.664947 0.000000 0.000000 0.000000 
-0.353026 30.939415 0.282787 0.000000 0.000000 0.000000 -3.374163 -46.567352 -1.651828 -24.186386 3.416103 15.050262 34.882094 -14.311774 -2.027808 -12.752509 2.132270 -10.505530 -0.133859 -2.285100 1.110054 0.000000 0.000000 0.000000 -4.367282 -45.549043 -1.817840 6.600752 -13.344543 -21.739768 24.853709 -7.033920 0.983888 -28.658436 -7.212035 21.369090 -1.490451 -0.384198 0.493800 0.000000 0.000000 0.000000 -2.170860 -43.516723 -1.067905 6.098416 5.428712 -1.190516 12.277417 9.015065 -3.092243 0.992068 -1.439737 0.777230 0.000000 0.000000 0.000000 12.269576 8.782214 -3.244802 -3.832014 -1.043509 0.014097 -4.328819 24.940548 -1.584497 0.000000 0.000000 0.000000 12.138967 8.897196 -3.093687 1.978051 -0.135835 -7.225152 -2.657327 -3.012018 -0.364265 -15.066269 3.961104 -61.503845 9.135644 -47.673484 5.636106 0.000000 0.000000 0.000000 12.093449 8.948447 -3.125838 1.436668 9.657587 11.510741 -1.970855 3.217817 -0.412532 3.237426 -20.921189 61.293762 -5.637085 40.742652 7.589575 0.000000 0.000000 0.000000 
-0.344787 30.938213 0.283453 0.000000 0.000000 0.000000 -3.314767 -46.628233 -1.558549 -24.196539 3.502275 14.957715 34.867795 -14.245680 -1.976652 -12.782459 2.148688 -10.593851 -0.096119 -2.296395 1.110664 0.000000 0.000000 0.000000 -4.355384 -45.574823 -1.749164 6.485343 -13.467829 -21.651213 24.842416 -7.008585 0.738028 -28.653166 -7.205442 21.409838 -1.582568 -0.414735 0.479605 0.000000 0.000000 0.000000 -2.179169 -43.559227 -1.006311 6.143683 5.369054 -1.192415 12.254655 8.856967 -3.092294 0.961404 -1.378881 0.784740 0.000000 0.000000 0.000000 12.223996 8.618026 -3.250263 -3.942709 -0.665961 -0.120857 -4.237236 26.401043 -1.956541 0.000000 0.000000 0.000000 12.128670 8.708226 -3.087939 1.990624 -0.164228 -7.232294 -2.584733 -3.013463 -0.377392 -15.040461 3.988653 -61.540537 9.263908 -47.952723 5.734558 0.000000 0.000000 0.000000 12.046316 8.786826 -3.100397 1.425453 9.639585 11.429201 -1.910162 3.152451 -0.386793 3.115568 -20.819014 61.257084 -5.616855 40.626013 7.535926 0.000000 0.000000 0.000000 
-0.336722 30.939674 0.287704 0.000000 0.000000 0.000000 -3.254481 -46.657319 -1.437247 -24.208028 3.626920 14.848198 34.862720 -14.202402 -1.939284 -12.849388 2.123949 -10.660761 -0.054995 -2.313108 1.136000 0.000000 0.000000 0.000000 -4.345549 -45.585079 -1.662403 6.399415 -13.609367 -21.528691 24.792929 -7.052305 0.464282 -28.637496 -7.178492 21.419622 -1.701956 -0.439682 0.487188 0.000000 0.000000 0.000000 -2.208600 -43.606206 -0.921655 6.193759 5.314449 -1.195655 12.229064 8.680318 -3.101559 0.971911 -1.352594 0.797352 0.000000 0.000000 0.000000 12.173874 8.432442 -3.260366 -4.148449 -0.203611 -0.271509 -4.183457 28.121854 -2.426271 0.000000 0.000000 0.000000 12.122792 8.500450 -3.085461 2.002350 -0.180210 -7.241246 -2.488007 -3.007447 -0.389527 -14.992649 3.944132 -61.557667 9.386059 -48.140181 5.803353 0.000000 0.000000 0.000000 12.003695 8.604235 -3.086194 1.406397 9.641646 11.337645 -1.872592 3.077008 -0.313704 3.008957 -20.726457 61.237113 -5.602961 40.511426 7.493286 0.000000 0.000000 0.000000 
-0.332764 30.944063 0.296247 0.000000 0.000000 0.000000 -3.188375 -46.667677 -1.287410 -24.209047 3.754485 14.708100 34.841652 -14.188673 -1.903143 -12.964744 2.062766 -10.727187 -0.036604 -2.332103 1.196080 0.000000 0.000000 0.000000 -4.332339 -45.587968 -1.552066 6.319637 -13.718269 -21.397704 24.736893 -7.156592 0.172359 -28.568687 -7.121488 21.483254 -1.883811 -0.465288 0.509758 0.000000 0.000000 0.000000 -2.243442 -43.644605 -0.814717 6.248181 5.266541 -1.200793 12.199629 8.498351 -3.118558 0.984121 -1.384210 0.808566 0.000000 0.000000 0.000000 12.123783 8.242581 -3.273680 -4.448552 0.338043 -0.418361 -4.146525 30.054909 -2.968428 0.000000 0.000000 0.000000 12.122214 8.290805 -3.084737 2.010394 -0.181048 -7.249657 -2.398390 -2.974096 -0.410723 -14.905071 3.842752 -61.548399 9.473945 -48.208800 5.820700 0.000000 0.000000 0.000000 11.969394 8.414343 -3.081794 1.378149 9.665174 11.248371 -1.865423 3.008765 -0.210135 2.931395 -20.624559 61.217913 -5.571380 40.335197 7.445460 0.000000 0.000000 0.000000 
-0.330650 30.948784 0.309772 0.000000 0.000000 0.000000 -3.113819 -46.669511 -1.117698 -24.212167 3.847457 14.532696 34.819922 -14.199216 -1.844984 -13.102471 1.998001 -10.805435 -0.031060 -2.348552 1.279715 0.000000 0.000000 0.000000 -4.304519 -45.585601 -1.424590 6.227619 -13.747123 -21.272580 24.708988 -7.318210 -0.135099 -28.456366 -7.023893 21.637553 -2.109144 -0.489387 0.527807 0.000000 0.000000 0.000000 -2.279800 -43.662421 -0.700528 6.308809 5.225839 -1.205806 12.172801 8.325328 -3.139073 0.986793 -1.420386 0.830457 0.000000 0.000000 0.000000 12.079408 8.064575 -3.288724 -4.829962 0.943495 -0.545016 -4.101635 32.137590 -3.547886 0.000000 0.000000 0.000000 12.130998 8.092843 -3.080508 2.013500 -0.161630 -7.255050 -2.334606 -2.915652 -0.475414 -14.785562 3.709692 -61.506441 9.527019 -48.179506 5.786383 0.000000 0.000000 0.000000 11.942623 8.231083 -3.081894 1.340186 9.710136 11.167056 -1.861901 2.940446 -0.108097 2.872984 -20.504761 61.190989 -5.510269 40.078123 7.384646 0.000000 0.000000 0.000000 
-0.332067 30.950573 0.331825 0.000000 0.000000 0.000000 -3.032100 -46.668142 -0.954903 -24.240031 3.868735 14.316148 34.815896 -14.213976 -1.732603 -13.233847 1.972771 -10.900610 -0.006988 -2.353747 1.361649 0.000000 0.000000 0.000000 -4.244427 -45.589064 -1.289400 6.124445 -13.670483 -21.150823 24.738667 -7.558689 -0.447690 -28.361324 -6.898063 21.862993 -2.264887 -0.510387 0.528940 0.000000 0.000000 0.000000 -2.321571 -43.632222 -0.600337 6.372127 5.186016 -1.204005 12.154135 8.166618 -3.152402 0.997708 -1.448668 0.837012 0.000000 0.000000 0.000000 12.049011 7.907348 -3.302235 -5.270212 1.597464 -0.645976 -4.044076 34.319190 -4.139940 0.000000 0.000000 0.000000 12.152415 7.913286 -3.064537 2.008646 -0.131495 -7.261303 -2.268670 -2.846702 -0.571126 -14.657962 3.576944 -61.436281 9.561905 -48.086355 5.717858 0.000000 0.000000 0.000000 11.921497 8.062076 -3.075670 1.295427 9.759907 11.088185 -1.854490 2.874946 -0.017378 2.835559 -20.372397 61.140438 -5.413886 39.774589 7.308953 0.000000 0.000000 0.000000 
